<svg width="57" height="57" viewBox="0 0 57 57" fill="none" xmlns="http://www.w3.org/2000/svg">
<path d="M52.7326 32.0612V51.9246C52.7326 52.3975 52.4173 52.7128 51.9443 52.7128H32.2386C31.7657 52.7128 31.4504 52.3975 31.4504 51.9246V46.4069C31.4504 45.934 31.7657 45.6187 32.2386 45.6187H45.6385V32.0612C45.6385 31.5882 45.9538 31.2729 46.4267 31.2729H51.9443C52.3384 31.2729 52.7326 31.5882 52.7326 32.0612Z" fill="white"/>
<path d="M25.2233 4.70965V10.2272C25.2233 10.7002 24.9081 11.0155 24.4351 11.0155H11.0352V24.573C11.0352 25.046 10.7199 25.3612 10.247 25.3612H4.72939C4.25645 25.3612 3.94116 25.046 3.94116 24.573V4.70965C3.94116 4.23671 4.25645 3.92142 4.72939 3.92142H24.4351C24.9081 3.92142 25.2233 4.23671 25.2233 4.70965Z" fill="white"/>
<path d="M45.8796 6.58104C46.6619 5.80744 47.9221 5.81096 48.7001 6.58892L50.2069 8.09571C50.991 8.87985 50.9875 10.1523 50.199 10.932L45.9491 15.1346C45.1668 15.9082 43.9066 15.9047 43.1286 15.1267L41.6218 13.62C40.8377 12.8358 40.8413 11.5634 41.6298 10.7837L45.8796 6.58104Z" fill="url(#paint0_linear)"/>
<path d="M48.949 21.3413C48.4761 21.8142 47.9243 21.9719 47.3725 21.9719C46.8208 21.9719 46.1902 21.7354 45.7961 21.3413L43.7467 19.3707L40.515 16.139L37.2832 12.9072L35.3126 10.9367C34.4456 10.0696 34.4456 8.57197 35.3126 7.70492C36.1797 6.83786 37.6773 6.83786 38.5444 7.70492L48.949 18.1095C49.8161 18.9766 49.8161 20.4742 48.949 21.3413Z" fill="url(#paint1_linear)"/>
<path d="M43.7467 19.3706L13.9517 55.9445C13.6364 56.3386 13.2422 56.4962 12.7693 56.4962L1.57646 56.5751C0.709406 56.5751 0 55.8656 0 54.9986L0.0788229 43.8057C0.0788229 43.3328 0.315292 42.8599 0.630583 42.6234L37.2044 12.8283L40.4361 16.0601L43.7467 19.3706Z" fill="url(#paint2_linear)"/>
<defs>
<linearGradient id="paint0_linear" x1="51.3433" y1="5.4096" x2="40.2772" y2="16.6097" gradientUnits="userSpaceOnUse">
<stop stop-color="#F8501C"/>
<stop offset="1" stop-color="#FFAB1D"/>
</linearGradient>
<linearGradient id="paint1_linear" x1="49.2259" y1="7.35297" x2="34.6817" y2="21.9911" gradientUnits="userSpaceOnUse">
<stop stop-color="#F8501C"/>
<stop offset="1" stop-color="#FFAB1D"/>
</linearGradient>
<linearGradient id="paint2_linear" x1="42.653" y1="13.7033" x2="-1.27116e-06" y2="56.5751" gradientUnits="userSpaceOnUse">
<stop stop-color="#F8501C"/>
<stop offset="1" stop-color="#FFAB1D"/>
</linearGradient>
</defs>
</svg>
