<svg width="180" height="130" viewBox="0 0 180 130" fill="none" xmlns="http://www.w3.org/2000/svg">
<path d="M0 36.6403C0 24.5454 9.24902 15.1186 21.6996 15.1186C29.5257 15.1186 36.6403 19.2095 40.1976 25.6126L29.5257 31.8379C28.1028 28.9921 25.2569 27.2134 21.6996 27.2134C16.3636 27.2134 12.4506 31.1265 12.4506 36.6403C12.4506 42.332 16.3636 46.0672 21.6996 46.0672C25.2569 46.0672 28.2806 44.2885 29.5257 41.4427L40.1976 47.4901C36.6403 53.8933 29.7036 57.9842 21.6996 57.9842C9.24902 58.162 0 48.913 0 36.6403Z" fill="url(#paint0_linear)"/>
<path d="M40.7313 37.3518C40.7313 25.257 50.336 15.8301 62.4309 15.8301C74.5257 15.8301 84.1305 25.257 84.1305 37.3518C84.1305 49.4467 74.5257 58.8736 62.4309 58.8736C50.336 58.8736 40.7313 49.6245 40.7313 37.3518ZM71.6799 37.3518C71.6799 31.4823 67.589 27.7471 62.253 27.7471C56.917 27.7471 52.8261 31.6601 52.8261 37.3518C52.8261 43.0435 56.917 46.9566 62.253 46.9566C67.589 46.9566 71.6799 43.2214 71.6799 37.3518Z" fill="url(#paint1_linear)"/>
<path d="M132.51 0V57.0949H120.237V53.1818C117.569 56.2055 113.478 58.1621 108.142 58.1621C97.4703 58.1621 88.577 48.7352 88.577 36.6403C88.577 24.5455 97.4703 15.1186 108.142 15.1186C113.656 15.1186 117.569 17.0751 120.237 20.0988V0H132.51ZM120.237 36.6403C120.237 30.5929 116.146 26.6798 110.455 26.6798C104.763 26.6798 100.672 30.5929 100.672 36.6403C100.672 42.6877 104.763 46.6008 110.455 46.6008C116.146 46.6008 120.237 42.8656 120.237 36.6403Z" fill="url(#paint2_linear)"/>
<path d="M160.079 47.3122C163.459 47.3122 166.304 46.0672 167.905 44.2885L177.688 49.8024C173.775 55.3162 167.727 58.162 159.901 58.162C146.028 58.162 137.312 48.7352 137.312 36.6403C137.312 24.5454 146.206 15.1186 159.012 15.1186C170.929 15.1186 179.644 24.3676 179.644 36.6403C179.644 38.419 179.466 40.0197 179.111 41.6205H150.119C151.719 45.8893 155.455 47.3122 160.079 47.3122ZM167.549 32.5494C166.304 27.747 162.569 26.1462 158.834 26.1462C154.21 26.1462 151.008 28.4585 149.941 32.5494H167.549Z" fill="url(#paint3_linear)"/>
<path d="M45.8893 108.142C45.8893 120.237 36.996 129.664 26.3241 129.664C20.8102 129.664 16.8972 127.707 14.2292 124.684V128.597H1.95648V71.324H14.2292V91.4229C16.8972 88.3991 20.9881 86.4426 26.3241 86.4426C37.1739 86.6205 45.8893 95.8695 45.8893 108.142ZM33.7944 108.142C33.7944 102.095 29.7035 98.1817 24.0118 98.1817C18.3201 98.1817 14.2292 102.095 14.2292 108.142C14.2292 114.19 18.3201 118.103 24.0118 118.103C29.7035 118.103 33.7944 114.19 33.7944 108.142Z" fill="url(#paint4_linear)"/>
<path d="M52.8261 68.8339H65.0988V128.419H52.8261V68.8339Z" fill="url(#paint5_linear)"/>
<path d="M72.9249 76.66C72.9249 72.747 76.3043 69.3676 80.2173 69.3676C84.1304 69.3676 87.5098 72.747 87.5098 76.66C87.5098 80.5731 84.1304 83.9525 80.2173 83.9525C76.3043 83.9525 72.9249 80.7509 72.9249 76.66ZM74.1699 87.6877H86.4426V128.419H74.1699V87.6877Z" fill="url(#paint6_linear)"/>
<path d="M110.81 99.4267V113.834C110.81 117.391 113.834 117.747 119.17 117.391V128.419C103.162 130.02 98.5375 125.217 98.5375 113.834V99.4267H91.9565V87.6876H98.5375V79.8615L110.81 76.1263V87.5097H119.17V99.2488H110.81V99.4267Z" fill="url(#paint7_linear)"/>
<path d="M157.589 117.035V128.419H125.04V120.237L140.514 99.071H125.929V87.6876H156.878V95.8694L141.403 117.035H157.589Z" fill="url(#paint8_linear)"/>
<path d="M164.348 121.838C164.348 117.569 167.905 114.012 172.174 114.012C176.443 114.012 180 117.569 180 121.838C180 126.107 176.443 129.664 172.174 129.664C167.727 129.664 164.348 126.107 164.348 121.838Z" fill="white"/>
<defs>
<linearGradient id="paint0_linear" x1="39.1927" y1="15.9759" x2="-2.53115" y2="55.3012" gradientUnits="userSpaceOnUse">
<stop stop-color="#F8501C"/>
<stop offset="1" stop-color="#FFAB1D"/>
</linearGradient>
<linearGradient id="paint1_linear" x1="83.0455" y1="16.6909" x2="41.0813" y2="59.2189" gradientUnits="userSpaceOnUse">
<stop stop-color="#F8501C"/>
<stop offset="1" stop-color="#FFAB1D"/>
</linearGradient>
<linearGradient id="paint2_linear" x1="131.412" y1="1.16324" x2="76.7882" y2="42.6347" gradientUnits="userSpaceOnUse">
<stop stop-color="#F8501C"/>
<stop offset="1" stop-color="#FFAB1D"/>
</linearGradient>
<linearGradient id="paint3_linear" x1="178.586" y1="15.9794" x2="136.621" y2="57.4626" gradientUnits="userSpaceOnUse">
<stop stop-color="#F8501C"/>
<stop offset="1" stop-color="#FFAB1D"/>
</linearGradient>
<linearGradient id="paint4_linear" x1="44.791" y1="72.4908" x2="-9.9542" y2="113.928" gradientUnits="userSpaceOnUse">
<stop stop-color="#F8501C"/>
<stop offset="1" stop-color="#FFAB1D"/>
</linearGradient>
<linearGradient id="paint5_linear" x1="64.792" y1="70.0256" x2="41.7258" y2="74.8009" gradientUnits="userSpaceOnUse">
<stop stop-color="#F8501C"/>
<stop offset="1" stop-color="#FFAB1D"/>
</linearGradient>
<linearGradient id="paint6_linear" x1="87.1452" y1="70.5486" x2="60.2178" y2="77.2334" gradientUnits="userSpaceOnUse">
<stop stop-color="#F8501C"/>
<stop offset="1" stop-color="#FFAB1D"/>
</linearGradient>
<linearGradient id="paint7_linear" x1="118.49" y1="77.1782" x2="76.5068" y2="99.0132" gradientUnits="userSpaceOnUse">
<stop stop-color="#F8501C"/>
<stop offset="1" stop-color="#FFAB1D"/>
</linearGradient>
<linearGradient id="paint8_linear" x1="156.775" y1="88.5022" x2="117.996" y2="119.65" gradientUnits="userSpaceOnUse">
<stop stop-color="#F8501C"/>
<stop offset="1" stop-color="#FFAB1D"/>
</linearGradient>
</defs>
</svg>
